<svg xmlns="http://www.w3.org/2000/svg" viewBox="0 0 16.84 11.74"><g id="Layer_2" data-name="Layer 2"><g id="Layer_2-2" data-name="Layer 2"><rect x="0.6" y="0.6" width="15.64" height="10.54" fill="none" stroke="#222" stroke-linejoin="round" stroke-width="1.2"/><circle cx="6.45" cy="5.89" r="3.39" fill="none" stroke="#222" stroke-linejoin="round" stroke-width="1.2"/><path d="M3.39,7.35A2.49,2.49,0,0,1,5.05,5.87a2.59,2.59,0,0,1,1.41,0,2.52,2.52,0,0,0,1.39,0A2.56,2.56,0,0,0,9.53,4.44" fill="none" stroke="#222" stroke-linejoin="round" stroke-width="1.2"/><path d="M7.91,9A2.48,2.48,0,0,1,6.42,7.29a2.56,2.56,0,0,1,0-1.4,2.62,2.62,0,0,0,0-1.39A2.53,2.53,0,0,0,5,2.82" fill="none" stroke="#222" stroke-linejoin="round" stroke-width="1.2"/><line x1="14.35" y1="2.83" x2="13.12" y2="2.83" fill="none" stroke="#222" stroke-linejoin="round" stroke-width="1.2"/><line x1="14.35" y1="8.34" x2="11.62" y2="8.34" fill="none" stroke="#222" stroke-linejoin="round" stroke-width="1.2"/><line x1="14.35" y1="6.38" x2="11.62" y2="6.38" fill="none" stroke="#222" stroke-linejoin="round" stroke-width="1.2"/></g></g></svg>