<svg xmlns="http://www.w3.org/2000/svg" viewBox="0 0 16.84 16.76"><g id="Layer_2" data-name="Layer 2"><g id="Layer_2-2" data-name="Layer 2"><rect x="0.6" y="0.6" width="15.64" height="15.56" fill="none" stroke="#222" stroke-linejoin="round" stroke-width="1.2"/><circle cx="8.43" cy="8.41" r="4.86" fill="none" stroke="#222" stroke-linejoin="round" stroke-width="1.2"/><path d="M4,10.5A3.6,3.6,0,0,1,6.42,8.37a3.79,3.79,0,0,1,2,0,3.48,3.48,0,0,0,2,0,3.64,3.64,0,0,0,2.41-2.12" fill="none" stroke="#222" stroke-linejoin="round" stroke-width="1.2"/><path d="M10.51,12.81a3.59,3.59,0,0,1-2.12-2.39,3.64,3.64,0,0,1,0-2A3.61,3.61,0,0,0,6.36,4" fill="none" stroke="#222" stroke-linejoin="round" stroke-width="1.2"/><line x1="14.35" y1="3.08" x2="13.12" y2="3.08" fill="none" stroke="#222" stroke-linejoin="round" stroke-width="1.2"/><line x1="3.74" y1="3.08" x2="2.5" y2="3.08" fill="none" stroke="#222" stroke-linejoin="round" stroke-width="1.2"/><line x1="14.35" y1="13.74" x2="13.12" y2="13.74" fill="none" stroke="#222" stroke-linejoin="round" stroke-width="1.2"/><line x1="3.74" y1="13.74" x2="2.5" y2="13.74" fill="none" stroke="#222" stroke-linejoin="round" stroke-width="1.2"/></g></g></svg>