<svg xmlns="http://www.w3.org/2000/svg" viewBox="0 0 16.88 16.74"><g id="Layer_2" data-name="Layer 2"><g id="Layer_2-2" data-name="Layer 2"><rect x="0.6" y="0.6" width="15.68" height="15.54" fill="none" stroke="#222" stroke-linejoin="round" stroke-width="1.2"/><path d="M12.08,16.14a2.94,2.94,0,0,0,1.1-2c.08-1.33-1.09-2-1-3.34a3.08,3.08,0,0,1,1.35-2.09" fill="none" stroke="#222" stroke-linejoin="round" stroke-width="1.2"/><path d="M8,16.14a2.92,2.92,0,0,0,1.09-2c.09-1.33-1.08-2-1-3.34A3,3,0,0,1,9.45,8.75" fill="none" stroke="#222" stroke-linejoin="round" stroke-width="1.2"/><path d="M3.91,16.14a2.94,2.94,0,0,0,1.1-2c.08-1.33-1.09-2-1-3.34A3.08,3.08,0,0,1,5.37,8.75" fill="none" stroke="#222" stroke-linejoin="round" stroke-width="1.2"/></g></g></svg>