<svg xmlns="http://www.w3.org/2000/svg" viewBox="0 0 16.81 16.88"><g id="Layer_2" data-name="Layer 2"><g id="Layer_2-2" data-name="Layer 2"><path d="M.6,9.33H16.21a0,0,0,0,1,0,0v3a4,4,0,0,1-4,4H4.58a4,4,0,0,1-4-4v-3A0,0,0,0,1,.6,9.33Z" fill="none" stroke="#222" stroke-linejoin="round" stroke-width="1.2"/><polyline points="7.12 9.33 7.12 12.89 4.02 12.89 4.02 9.33" fill="none" stroke="#222" stroke-linejoin="round" stroke-width="1.2"/><path d="M13.34.5A2.6,2.6,0,0,0,12,2.26c-.1,1.1,1.07,1.69,1,2.81A2.57,2.57,0,0,1,11.65,6.9" fill="none" stroke="#222" stroke-linejoin="round" stroke-width="1.2"/><path d="M9.26.5A2.59,2.59,0,0,0,7.91,2.26C7.81,3.36,9,4,8.9,5.07A2.59,2.59,0,0,1,7.56,6.9" fill="none" stroke="#222" stroke-linejoin="round" stroke-width="1.2"/><path d="M5.17.5A2.55,2.55,0,0,0,3.83,2.26c-.1,1.1,1.07,1.69,1,2.81A2.57,2.57,0,0,1,3.48,6.9" fill="none" stroke="#222" stroke-linejoin="round" stroke-width="1.2"/></g></g></svg>