<svg xmlns="http://www.w3.org/2000/svg" viewBox="0 0 11.96 17"><g id="Layer_2" data-name="Layer 2"><g id="Layer_2-2" data-name="Layer 2"><path d="M9.62,12.64A2.54,2.54,0,0,1,8.16,16,6.17,6.17,0,0,1,6,16.38a6.07,6.07,0,0,1-1.75-.24,2.65,2.65,0,0,1-1.79-3.62c1-2.54,1.38-5.09-.3-7.63H9.85C8.14,7.48,8.53,10.06,9.62,12.64Z" fill="none" stroke="#222" stroke-linejoin="round" stroke-width="1.2"/><path d="M4.65,4.89c.49-.32.68-.63.7-.91,0-.55-.58-.85-.52-1.4a1.3,1.3,0,0,1,.71-.88" fill="none" stroke="#222" stroke-linejoin="round" stroke-width="1.2"/><path d="M7.4.51a1.3,1.3,0,0,0-.71.88c-.05.55.57.85.52,1.4,0,.28-.2.59-.71.92" fill="none" stroke="#222" stroke-linejoin="round" stroke-width="1.2"/><path d="M3.35,7.76c.89,0,.89.21,1.78.21S6,7.76,6.91,7.76,7.8,8,8.69,8" fill="none" stroke="#222" stroke-linejoin="round" stroke-width="1.2"/><line x1="11.96" y1="16.4" y2="16.4" fill="none" stroke="#222" stroke-linejoin="round" stroke-width="1.2"/></g></g></svg>