<svg xmlns="http://www.w3.org/2000/svg" viewBox="0 0 17 16.75"><g id="Layer_2" data-name="Layer 2"><g id="Layer_2-2" data-name="Layer 2"><path d="M.74.6H16.38a0,0,0,0,1,0,0V3.26a.49.49,0,0,1-.49.49H1.23a.49.49,0,0,1-.49-.49V.6A0,0,0,0,1,.74.6Z" fill="none" stroke="#222" stroke-linejoin="round" stroke-width="1.2"/><line x1="15.72" y1="9.89" x2="1.36" y2="9.89" fill="none" stroke="#222" stroke-linejoin="round" stroke-width="1.2"/><line x1="15.72" y1="6.71" x2="1.36" y2="6.71" fill="none" stroke="#222" stroke-linejoin="round" stroke-width="1.2"/><line x1="15.72" y1="13.07" x2="1.36" y2="13.07" fill="none" stroke="#222" stroke-linejoin="round" stroke-width="1.2"/><polyline points="1.35 3.72 1.35 6.72 1.35 9.91 1.35 13.1 1.35 16.12" fill="none" stroke="#222" stroke-linejoin="round" stroke-width="1.2"/><line x1="17" y1="16.15" y2="16.15" fill="none" stroke="#222" stroke-linejoin="round" stroke-width="1.2"/><polyline points="15.72 16.12 15.72 13.1 15.72 9.91 15.72 6.72 15.72 3.72" fill="none" stroke="#222" stroke-linejoin="round" stroke-width="1.2"/><line x1="14.8" y1="2.17" x2="13.12" y2="2.17" fill="none" stroke="#222" stroke-linejoin="round" stroke-width="1.2"/></g></g></svg>