<svg xmlns="http://www.w3.org/2000/svg" viewBox="0 0 16.91 16.88"><g id="Layer_2" data-name="Layer 2"><g id="Layer_2-2" data-name="Layer 2"><polygon points="11.02 12.41 11.02 9.07 5.81 9.07 5.81 4.82 0.6 4.82 0.6 16.28 5.81 16.28 11.02 16.28 16.23 16.28 16.23 12.41 11.02 12.41" fill="none" stroke="#222" stroke-linejoin="round" stroke-width="1.2"/><path d="M16.58.5A2.11,2.11,0,0,0,15.48,2c-.08.91.88,1.41.81,2.34a2.17,2.17,0,0,1-1.1,1.52" fill="none" stroke="#222" stroke-linejoin="round" stroke-width="1.2"/><path d="M13.24.5A2.11,2.11,0,0,0,12.14,2c-.08.91.87,1.41.8,2.34a2.12,2.12,0,0,1-1.09,1.52" fill="none" stroke="#222" stroke-linejoin="round" stroke-width="1.2"/><path d="M9.9.5A2.11,2.11,0,0,0,8.8,2c-.08.91.87,1.41.8,2.34A2.12,2.12,0,0,1,8.51,5.82" fill="none" stroke="#222" stroke-linejoin="round" stroke-width="1.2"/></g></g></svg>