<svg xmlns="http://www.w3.org/2000/svg" viewBox="0 0 16.78 16.94"><g id="Layer_2" data-name="Layer 2"><g id="Layer_2-2" data-name="Layer 2"><path d="M.6.6H3.72a0,0,0,0,1,0,0V2.11A1.56,1.56,0,0,1,2.16,3.67h0A1.56,1.56,0,0,1,.6,2.11V.6a0,0,0,0,1,0,0Z" fill="none" stroke="#222" stroke-linejoin="round" stroke-width="1.2"/><path d="M3.72.6H6.83a0,0,0,0,1,0,0V2.11A1.56,1.56,0,0,1,5.27,3.67h0A1.56,1.56,0,0,1,3.72,2.11V.6A0,0,0,0,1,3.72.6Z" fill="none" stroke="#222" stroke-linejoin="round" stroke-width="1.2"/><path d="M6.83.6H9.95a0,0,0,0,1,0,0V2.11A1.56,1.56,0,0,1,8.39,3.67h0A1.56,1.56,0,0,1,6.83,2.11V.6a0,0,0,0,1,0,0Z" fill="none" stroke="#222" stroke-linejoin="round" stroke-width="1.2"/><path d="M9.95.6h3.12a0,0,0,0,1,0,0V2.11A1.56,1.56,0,0,1,11.5,3.67h0A1.56,1.56,0,0,1,9.95,2.11V.6a0,0,0,0,1,0,0Z" fill="none" stroke="#222" stroke-linejoin="round" stroke-width="1.2"/><path d="M16.18.6V2.11a1.56,1.56,0,0,1-1.56,1.56h0a1.56,1.56,0,0,1-1.56-1.56V.6Z" fill="none" stroke="#222" stroke-linejoin="round" stroke-width="1.2"/><rect x="2.84" y="6.34" width="11.1" height="6.76" fill="none" stroke="#222" stroke-linejoin="round" stroke-width="1.2"/><rect x="0.61" y="0.6" width="15.57" height="15.74" fill="none" stroke="#222" stroke-linejoin="round" stroke-width="1.2"/><line x1="2.84" y1="9.72" x2="13.94" y2="9.72" fill="none" stroke="#222" stroke-linejoin="round" stroke-width="1.2"/></g></g></svg>