<svg xmlns="http://www.w3.org/2000/svg" viewBox="0 0 16.86 16.88"><g id="Layer_2" data-name="Layer 2"><g id="Layer_2-2" data-name="Layer 2"><path d="M0,15.4c1,0,1,.88,2.07.88s1-.88,2.07-.88,1,.88,2.07.88,1-.88,2.08-.88,1,.88,2.07.88,1-.88,2.08-.88,1,.88,2.07.88" fill="none" stroke="#222" stroke-linejoin="round" stroke-width="1.2"/><line x1="0.05" y1="5.9" x2="16.86" y2="5.9" fill="none" stroke="#222" stroke-linejoin="round" stroke-width="1.2"/><line x1="9.75" y1="10.52" x2="2.62" y2="10.52" fill="none" stroke="#222" stroke-linejoin="round" stroke-width="1.2"/><path d="M9.75,16.17V2.85a2.25,2.25,0,0,1,4.5,0V4.21" fill="none" stroke="#222" stroke-linejoin="round" stroke-width="1.2"/><path d="M2.62,16.17V2.85a2.25,2.25,0,0,1,4.5,0V4.21" fill="none" stroke="#222" stroke-linejoin="round" stroke-width="1.2"/></g></g></svg>